<?xml version="1.0" standalone="no"?>
<!DOCTYPE svg PUBLIC "-//W3C//DTD SVG 20010904//EN"
 "http://www.w3.org/TR/2001/REC-SVG-20010904/DTD/svg10.dtd">
<svg version="1.0" xmlns="http://www.w3.org/2000/svg"
 width="1120.000000pt" height="1120.000000pt" viewBox="0 0 1120.000000 1120.000000"
 preserveAspectRatio="xMidYMid meet">
<metadata>
Created by potrace 1.14, written by Peter Selinger 2001-2017
</metadata>
<g transform="translate(0.000000,1120.000000) scale(0.100000,-0.100000)"
fill="#000000" stroke="none">
<path d="M7473 9340 c-24 -10 -43 -16 -43 -13 0 3 -7 0 -15 -7 -8 -7 -15 -10
-15 -6 0 4 -13 0 -29 -8 -16 -9 -31 -12 -35 -9 -3 4 -6 0 -6 -7 0 -7 -3 -11
-6 -7 -4 3 -23 -1 -43 -9 -20 -8 -38 -15 -41 -15 -12 1 -86 -22 -95 -29 -5 -4
-18 -6 -27 -5 -10 2 -18 -2 -18 -8 0 -5 -3 -7 -7 -4 -3 4 -12 2 -20 -4 -7 -6
-13 -9 -13 -6 0 4 -18 0 -40 -8 -22 -8 -40 -11 -40 -8 0 4 -5 2 -11 -4 -6 -6
-18 -9 -25 -6 -8 3 -14 1 -14 -5 0 -6 -11 -9 -25 -7 -14 1 -28 -2 -31 -6 -3
-5 -15 -9 -28 -9 -12 0 -26 -3 -30 -7 -4 -5 -16 -9 -27 -9 -10 -1 -20 -2 -21
-4 -4 -2 -36 -9 -68 -15 -14 -2 -25 -4 -25 -5 0 -1 -7 -3 -15 -5 -8 -2 -54
-12 -102 -23 -48 -11 -90 -17 -93 -14 -3 3 -5 1 -5 -4 0 -6 -11 -11 -25 -12
-14 -1 -36 -3 -50 -4 -14 -1 -25 -6 -25 -11 0 -4 -3 -6 -7 -4 -5 3 -37 -1 -73
-9 -120 -26 -164 -34 -205 -40 -11 -1 -20 -3 -20 -4 0 -1 -11 -4 -25 -6 -52
-10 -65 -13 -65 -14 0 -1 -13 -3 -30 -5 -16 -1 -73 -12 -125 -23 -52 -11 -108
-23 -125 -26 -16 -3 -43 -8 -60 -11 -16 -4 -38 -7 -47 -8 -10 -1 -18 -4 -18
-7 0 -3 -10 -5 -22 -6 -29 -1 -84 -11 -123 -22 -16 -5 -38 -8 -47 -6 -10 1
-18 -1 -18 -5 0 -4 -8 -7 -17 -8 -20 -2 -56 -8 -93 -17 -14 -3 -37 -8 -52 -11
-16 -3 -40 -8 -55 -12 -16 -3 -38 -7 -50 -7 -13 -1 -23 -4 -23 -7 0 -4 -15 -9
-32 -12 -60 -9 -93 -16 -145 -31 -29 -8 -53 -12 -53 -9 0 3 -7 0 -15 -7 -8 -7
-15 -10 -15 -7 0 3 -16 1 -36 -5 -50 -13 -77 -19 -91 -20 -7 -1 -13 -5 -13
-10 0 -5 -4 -7 -8 -4 -5 3 -26 0 -48 -6 -21 -5 -39 -10 -39 -9 0 1 -25 -7 -57
-18 -31 -11 -59 -17 -61 -14 -3 2 -16 -3 -29 -11 -14 -9 -27 -14 -30 -11 -3 3
-18 0 -34 -6 -16 -7 -31 -13 -34 -14 -15 -5 -58 -17 -71 -19 -8 -2 -22 -6 -31
-10 -9 -4 -22 -9 -30 -10 -7 -2 -24 -8 -38 -13 -14 -6 -28 -9 -32 -6 -5 2 -8
-1 -8 -8 0 -7 -3 -9 -7 -6 -3 4 -12 2 -20 -5 -7 -6 -16 -8 -20 -5 -3 4 -11 3
-17 -1 -6 -5 -40 -19 -76 -31 -36 -13 -78 -29 -95 -36 -16 -7 -51 -21 -77 -30
-27 -10 -48 -21 -48 -26 0 -5 -7 -6 -15 -3 -8 4 -15 1 -15 -7 0 -7 -3 -10 -6
-7 -7 8 -137 -51 -146 -66 -4 -6 -8 -8 -8 -3 0 4 -15 0 -32 -10 -18 -9 -35
-18 -38 -18 -10 -2 -115 -58 -120 -64 -3 -3 -31 -19 -62 -36 -32 -16 -58 -34
-58 -38 0 -5 -4 -5 -10 -2 -5 3 -10 1 -10 -4 0 -6 -7 -11 -15 -11 -7 0 -19 -8
-24 -17 -6 -10 -11 -14 -11 -9 0 5 -9 1 -20 -9 -11 -10 -20 -14 -20 -9 0 5 -7
-2 -16 -14 -8 -12 -22 -22 -30 -22 -8 0 -14 -5 -14 -11 0 -5 -4 -8 -9 -5 -5 3
-12 -1 -15 -9 -3 -9 -17 -20 -31 -25 -14 -5 -25 -14 -25 -20 0 -6 -5 -8 -10
-5 -5 3 -10 1 -10 -5 0 -5 -13 -18 -30 -29 -16 -10 -27 -21 -22 -26 4 -4 -1
-5 -11 -2 -10 4 -16 3 -13 -1 3 -5 -9 -19 -25 -33 -52 -42 -80 -69 -72 -69 4
-1 -4 -8 -19 -16 -16 -8 -28 -21 -28 -29 0 -8 -5 -15 -10 -15 -6 0 -19 -9 -30
-20 -11 -11 -18 -20 -16 -20 3 0 -13 -19 -34 -42 -22 -23 -36 -46 -33 -51 3
-6 1 -7 -6 -3 -6 4 -14 0 -18 -11 -7 -18 -17 -30 -101 -120 -27 -29 -48 -53
-46 -53 4 0 -60 -90 -101 -145 -8 -10 -15 -25 -15 -32 0 -7 -4 -13 -10 -13 -5
0 -10 -5 -10 -11 0 -6 -9 -23 -20 -39 -11 -15 -17 -30 -13 -34 3 -3 1 -6 -6
-6 -7 0 -9 -4 -6 -10 3 -5 3 -10 -2 -10 -8 0 -16 -17 -49 -95 -9 -22 -22 -54
-30 -70 -8 -17 -16 -41 -18 -52 -3 -12 -10 -31 -16 -43 -6 -11 -8 -25 -5 -30
3 -6 2 -10 -3 -10 -6 0 -13 -17 -17 -37 -5 -21 -9 -42 -11 -48 -33 -118 -62
-302 -69 -445 -1 -30 -3 -57 -4 -59 0 -3 -15 8 -31 24 -17 16 -30 26 -30 22 0
-3 -11 4 -24 16 -40 36 -55 47 -66 47 -5 0 -10 5 -10 11 0 5 -4 8 -8 5 -5 -3
-25 6 -45 20 -20 14 -37 22 -37 19 0 -3 -12 0 -28 8 -62 33 -102 47 -139 49
-7 1 -13 6 -13 11 0 5 -7 7 -15 4 -8 -4 -17 -2 -20 3 -4 6 -19 10 -34 10 -15
0 -32 5 -39 12 -9 9 -12 9 -12 -1 0 -7 -5 -9 -12 -4 -7 4 -20 9 -28 10 -59 10
-91 15 -130 18 -77 5 -314 6 -338 1 -13 -3 -44 -6 -69 -8 l-45 -2 6 -130 c3
-72 8 -153 12 -181 3 -27 6 -57 6 -65 1 -8 5 -21 11 -27 6 -9 6 -13 -3 -13 -9
0 -10 -4 -2 -13 6 -7 13 -33 16 -57 3 -25 10 -63 16 -85 6 -22 13 -47 14 -55
2 -8 6 -22 9 -30 5 -15 15 -58 17 -74 1 -6 -17 -15 -39 -22 -23 -6 -41 -10
-41 -8 0 3 -13 -2 -29 -10 -16 -9 -31 -12 -35 -9 -3 4 -6 1 -6 -4 0 -6 -7 -10
-17 -9 -9 2 -32 -5 -52 -14 -20 -9 -51 -23 -69 -31 -17 -8 -32 -18 -32 -22 0
-5 -5 -5 -11 -2 -5 4 -19 -1 -30 -11 -10 -9 -19 -14 -19 -10 0 4 -12 -2 -26
-13 -15 -12 -32 -21 -40 -21 -7 0 -14 -5 -16 -10 -2 -6 -13 -12 -25 -13 -12 0
-20 -4 -17 -8 2 -4 -5 -10 -16 -14 -11 -3 -20 -11 -20 -16 0 -5 -6 -9 -14 -9
-7 0 -25 -11 -39 -24 -14 -13 -28 -21 -31 -18 -3 3 -6 0 -6 -6 0 -7 -7 -12
-15 -12 -8 0 -15 -4 -15 -10 0 -5 -6 -10 -13 -10 -7 0 -18 -9 -25 -20 -7 -11
-17 -20 -23 -20 -6 0 -26 -16 -45 -35 -19 -20 -34 -32 -34 -29 0 4 -12 -5 -26
-20 -15 -14 -31 -26 -35 -26 -5 0 -8 -3 -7 -7 3 -10 -49 -62 -55 -56 -3 2 -8
-5 -12 -16 -3 -12 -14 -21 -22 -21 -9 0 -13 -3 -10 -7 4 -3 0 -11 -8 -17 -13
-9 -12 -15 10 -38 14 -15 25 -29 25 -32 0 -2 25 -30 55 -62 30 -32 55 -62 55
-66 0 -5 8 -8 17 -8 9 0 14 -3 11 -6 -7 -6 100 -114 113 -114 4 0 11 -9 14
-20 3 -11 11 -20 16 -20 5 0 23 -14 39 -30 17 -17 30 -28 30 -24 0 4 8 -2 17
-12 28 -31 140 -114 154 -114 7 0 9 -3 6 -6 -4 -4 11 -16 33 -28 22 -12 48
-29 59 -38 11 -9 22 -14 25 -11 3 4 6 1 6 -6 0 -7 4 -10 9 -6 5 3 16 0 23 -7
21 -20 56 -38 72 -38 7 0 19 -7 26 -15 7 -8 16 -12 21 -9 5 3 9 0 9 -6 0 -6 3
-9 7 -7 5 3 19 0 33 -6 14 -5 34 -12 45 -14 11 -2 24 -8 29 -13 6 -6 20 -10
31 -10 12 0 24 -3 28 -6 3 -4 26 -8 49 -10 24 -1 59 -6 78 -9 53 -11 182 -13
208 -3 13 4 21 4 18 -1 -4 -5 9 -6 29 -1 19 4 35 5 35 1 0 -3 -16 -30 -35 -58
-19 -29 -35 -55 -35 -58 0 -4 -7 -13 -15 -21 -8 -9 -15 -24 -15 -35 0 -10 -4
-19 -8 -19 -9 0 -57 -104 -61 -133 0 -4 -8 -21 -16 -37 -8 -16 -15 -32 -15
-35 0 -3 0 -6 -1 -7 0 -2 -2 -10 -4 -18 -2 -8 -8 -37 -15 -65 -30 -129 -33
-369 -5 -507 3 -16 7 -39 10 -53 3 -14 7 -37 10 -52 8 -45 60 -228 75 -268 10
-25 21 -58 22 -65 0 -3 11 -24 25 -47 14 -24 22 -43 17 -43 -4 0 3 -9 16 -20
13 -11 20 -20 16 -20 -12 0 17 -47 57 -91 9 -10 17 -23 17 -27 0 -14 171 -172
186 -172 8 0 14 -4 14 -9 0 -5 8 -11 18 -15 9 -3 31 -15 47 -26 17 -11 41 -24
55 -30 14 -6 32 -13 40 -17 8 -3 17 -7 20 -8 3 -1 18 -7 33 -13 16 -7 34 -12
42 -12 8 0 17 -5 20 -10 4 -6 11 -8 16 -5 5 4 9 2 9 -3 0 -5 13 -9 29 -10 17
0 38 -5 49 -11 11 -6 22 -8 24 -5 3 2 16 0 30 -5 14 -5 49 -12 79 -16 30 -4
70 -9 89 -12 19 -3 55 -7 80 -8 25 -2 45 -4 45 -4 0 -2 106 -8 260 -15 44 -2
87 -4 95 -5 13 -1 15 -27 15 -168 0 -199 8 -227 63 -238 46 -9 92 -12 92 -5 0
3 28 6 62 7 71 3 126 10 141 20 6 3 7 1 3 -5 -4 -7 -2 -10 6 -7 18 6 112 16
175 18 29 1 53 4 53 7 0 3 26 6 58 7 52 2 108 7 217 17 243 23 253 23 300 1
22 -10 43 -17 47 -17 4 1 27 -7 52 -17 24 -11 47 -17 50 -14 3 4 6 1 6 -4 0
-6 8 -10 18 -8 9 1 22 0 27 -4 6 -3 17 -8 25 -10 8 -3 546 -7 1195 -9 926 -2
1190 0 1225 10 25 7 47 13 50 14 3 0 12 4 20 7 28 13 165 58 178 59 6 1 12 5
12 10 0 5 4 7 9 3 5 -3 12 -1 16 5 4 6 10 8 15 5 5 -3 11 -1 15 5 4 6 11 8 16
5 5 -4 9 -1 9 4 0 6 3 10 8 9 4 0 16 2 27 6 11 4 34 13 50 18 17 6 36 18 43
26 10 13 12 13 12 1 0 -9 3 -10 8 -3 4 5 25 18 47 28 22 9 56 26 76 36 20 11
39 17 43 13 3 -3 6 -2 6 4 0 6 26 22 58 37 31 15 66 33 77 39 11 7 54 31 95
55 41 24 89 52 105 62 17 11 45 27 63 37 17 9 32 20 32 25 0 4 7 8 15 8 8 0
15 5 15 10 0 6 4 10 10 10 12 0 117 73 187 130 21 17 27 12 68 -56 54 -90 99
-134 138 -136 65 -3 205 5 322 17 22 3 66 6 97 7 32 2 58 6 58 9 0 3 12 4 28
3 15 -1 52 5 82 13 30 8 63 16 72 18 22 5 78 46 78 57 0 5 5 6 10 3 6 -3 10
-2 10 4 0 6 13 24 30 41 16 16 27 30 24 30 -10 0 83 87 99 93 9 3 17 13 17 22
0 8 4 15 8 15 14 0 31 67 20 78 -6 6 -6 12 1 16 8 5 8 13 1 27 -6 10 -8 19 -4
19 4 0 -5 11 -20 25 -15 14 -24 25 -21 25 3 0 -5 15 -19 33 -15 19 -26 39 -26
46 0 7 -4 9 -10 6 -5 -3 -10 0 -10 8 0 7 -8 22 -17 33 -10 10 -24 31 -32 46
-8 16 -18 28 -23 28 -4 0 -8 6 -8 14 0 8 -10 22 -22 31 -13 8 -21 17 -18 20 3
2 -2 12 -10 22 -9 10 -15 21 -15 25 0 3 -14 23 -32 42 -17 20 -29 36 -27 36 3
0 0 8 -5 19 -8 15 -5 24 17 44 24 23 59 63 102 119 8 11 25 30 38 43 12 13 22
29 22 35 0 5 4 10 8 10 5 0 15 11 22 25 7 13 18 22 23 18 6 -3 7 -1 4 4 -4 6
5 23 18 37 14 15 25 30 25 35 0 4 8 16 18 27 9 10 35 46 57 79 21 33 42 62 47
63 4 2 8 8 8 13 0 5 22 45 50 89 27 44 46 80 42 80 -4 0 0 5 8 10 8 5 16 13
16 17 4 24 17 53 24 53 8 0 23 38 21 53 -1 4 4 7 9 7 6 0 10 4 10 9 0 6 17 47
39 93 33 73 50 111 56 128 2 5 7 17 36 93 7 15 14 27 18 27 4 0 29 -24 57 -52
71 -75 124 -119 135 -112 5 3 9 0 9 -6 0 -6 12 -16 28 -23 15 -6 29 -14 32
-17 9 -11 99 -50 114 -50 8 0 17 -4 20 -9 7 -11 107 -33 154 -35 12 0 22 -3
22 -6 0 -3 50 -6 110 -6 62 0 110 4 110 9 0 5 6 4 13 -2 8 -6 16 -9 18 -6 3 2
18 6 34 9 84 13 127 21 143 26 4 1 12 3 17 5 6 1 12 3 15 4 3 2 18 5 34 7 16
3 42 12 58 20 17 9 32 13 35 10 3 -3 15 0 27 6 11 7 24 11 29 10 4 -1 7 2 7 6
0 4 10 8 22 9 11 1 24 7 28 13 4 7 10 11 14 10 4 -1 12 1 19 3 9 4 9 6 0 6 -7
1 -13 12 -13 26 0 14 -4 25 -10 25 -5 0 -7 7 -4 15 4 8 1 15 -6 15 -6 0 -9 4
-6 9 6 8 -19 77 -53 151 -9 19 -16 40 -16 46 0 6 -5 18 -11 25 -6 8 -18 31
-25 52 -7 21 -20 46 -29 55 -9 9 -27 38 -40 65 -13 26 -27 47 -31 47 -4 0 -9
6 -12 14 -4 10 17 29 61 57 37 24 71 49 75 56 4 7 14 13 22 13 8 0 20 9 27 20
7 11 17 20 22 20 5 0 52 43 103 95 51 52 90 95 86 95 -3 0 4 8 15 19 12 10 22
23 22 29 0 6 12 20 26 31 15 12 23 21 18 21 -5 0 -4 4 1 8 6 4 24 28 40 54 17
27 34 48 38 48 5 0 5 5 2 10 -3 6 -2 10 4 10 6 0 13 11 17 25 3 14 10 25 16
25 5 0 7 4 4 9 -3 5 1 14 9 21 8 7 13 16 10 20 -3 4 2 11 11 14 9 4 14 13 10
21 -3 8 -1 15 5 15 6 0 4 6 -3 13 -17 17 -113 77 -122 77 -4 0 -14 6 -21 13
-26 22 -41 32 -55 35 -8 2 -18 9 -22 15 -4 7 -8 8 -8 4 0 -5 -13 1 -29 12 -16
12 -36 21 -45 21 -9 0 -16 3 -16 8 0 4 -9 13 -21 20 -17 11 -20 11 -13 0 4 -7
-2 -5 -13 5 -11 9 -24 17 -30 17 -6 0 -34 11 -61 25 -28 14 -58 25 -69 25 -10
0 -23 4 -29 10 -5 5 -18 11 -29 13 -20 4 -40 11 -83 28 -18 7 -21 6 -16 -3 6
-10 5 -10 -7 -1 -8 6 -28 14 -44 17 -17 2 -30 5 -30 6 0 4 -116 17 -190 21
-17 1 -129 -11 -145 -16 -8 -2 -35 -7 -60 -10 -25 -4 -50 -11 -55 -15 -6 -5
-17 -5 -25 0 -10 7 -11 10 -2 10 6 0 12 5 12 12 0 6 11 25 24 42 13 17 33 49
45 71 12 22 26 47 31 55 35 53 80 141 80 154 0 9 5 16 12 16 6 0 9 3 5 6 -3 3
3 21 14 41 11 19 20 42 22 51 1 9 6 23 10 30 5 6 5 12 0 12 -4 0 -3 4 4 8 6 4
15 21 18 37 8 40 13 60 15 60 11 0 44 244 41 300 -7 113 -32 242 -61 310 -17
40 -23 60 -22 68 1 4 -3 7 -8 7 -5 0 -9 3 -8 8 3 9 -52 105 -67 114 -5 4 -7 8
-2 8 12 0 -87 107 -146 157 -15 13 -27 20 -27 15 0 -4 -4 -2 -8 4 -8 12 -100
74 -110 74 -4 0 -34 14 -67 30 -33 16 -68 30 -77 30 -10 0 -18 5 -18 12 0 6
-3 9 -6 5 -4 -3 -22 0 -40 8 -19 8 -34 12 -34 9 0 -3 -9 0 -21 6 -11 7 -33 14
-47 16 -34 7 -37 10 -22 29 15 18 13 18 -95 17 -38 -1 -84 3 -101 9 -17 5 -41
12 -53 14 -11 3 -31 8 -43 11 -13 3 -30 7 -38 9 -8 2 -15 4 -15 5 0 3 -39 11
-62 13 -13 1 -23 5 -23 10 0 4 -9 7 -20 7 -10 0 -29 4 -42 9 -50 20 -63 24
-76 22 -12 -2 -12 23 -1 44 3 6 7 28 8 50 1 22 7 42 13 46 7 4 7 9 -1 14 -8 4
-9 11 -3 18 5 7 9 19 9 27 0 32 12 110 18 120 3 5 1 10 -5 10 -6 0 -8 5 -4 12
11 18 11 82 -1 90 -6 5 -6 8 1 8 7 0 9 11 7 28 -2 15 -6 41 -8 57 -2 17 -4 30
-5 30 -1 0 -4 11 -6 25 -2 13 -12 35 -20 48 -9 13 -13 26 -10 29 7 8 -65 71
-102 89 -34 16 -60 23 -102 29 -14 2 -25 4 -25 5 0 11 -315 18 -322 7 -3 -5
-11 -6 -19 -3 -15 6 -85 -63 -116 -115 -12 -19 -20 -35 -19 -36 0 -2 1 -6 0
-10 0 -5 0 -53 1 -108 0 -55 -4 -107 -10 -115 -6 -9 -10 -10 -10 -3 0 6 -24
19 -52 29 -29 9 -62 22 -73 27 -11 6 -22 12 -25 13 -3 0 -21 7 -40 15 -19 7
-38 12 -42 11 -5 -1 -8 2 -8 6 0 5 -22 14 -50 21 -27 7 -50 17 -50 22 0 4 -7
6 -15 3 -8 -4 -15 -1 -15 6 0 6 -4 9 -9 5 -5 -3 -27 1 -48 9 -21 8 -64 22 -95
31 -52 15 -56 18 -46 35 7 10 14 18 17 18 19 -2 33 5 51 24 11 12 20 18 20 14
0 -5 13 9 30 30 16 22 34 44 40 51 5 7 10 17 10 23 0 14 69 80 83 80 6 0 8 3
5 6 -3 3 4 16 17 30 22 23 54 82 60 108 1 6 6 20 10 31 15 34 10 252 -7 280
-3 6 -8 22 -12 37 -3 15 -11 40 -18 55 -6 15 -12 30 -13 33 0 3 -6 15 -13 28
-12 22 -16 22 -200 22 -163 0 -192 -3 -229 -20z"/>
</g>
</svg>
