<svg width="44" height="32" viewBox="0 0 44 32" fill="none" xmlns="http://www.w3.org/2000/svg">
<path d="M40.75 28.5078V25.3828C40.7432 20.6838 38.9736 16.1583 35.7911 12.7009C32.6087 9.24363 28.2449 7.10611 23.5625 6.71094V3.50781H28.25V0.382812H15.75V3.50781H20.4375V6.71094C15.7551 7.10611 11.3913 9.24363 8.20885 12.7009C5.02638 16.1583 3.25683 20.6838 3.25 25.3828V28.5078H0.125V31.6328H43.875V28.5078H40.75ZM22 9.75781C25.6002 9.76278 29.0886 11.0087 31.8773 13.2857C34.666 15.5626 36.5845 18.7314 37.3094 22.2578H6.69063C7.41555 18.7314 9.33402 15.5626 12.1227 13.2857C14.9114 11.0087 18.3998 9.76278 22 9.75781ZM6.375 25.3828H37.625V28.5078H6.375V25.3828Z" fill="#40B052"/>
</svg>
