<svg width="20" height="19" viewBox="0 0 20 19" fill="none" xmlns="http://www.w3.org/2000/svg">
<path d="M12.0005 4.16634C12.8145 4.32515 13.5625 4.72322 14.1489 5.30962C14.7353 5.89602 15.1334 6.64406 15.2922 7.45801L12.0005 4.16634ZM12.0005 0.833008C13.6916 1.02087 15.2685 1.77815 16.4724 2.98051C17.6763 4.18287 18.4355 5.75885 18.6255 7.44967L12.0005 0.833008ZM17.7922 14.0997V16.5997C17.7931 16.8318 17.7456 17.0615 17.6526 17.2741C17.5596 17.4868 17.4233 17.6777 17.2522 17.8346C17.0812 17.9915 16.8793 18.1109 16.6595 18.1853C16.4396 18.2596 16.2067 18.2872 15.9755 18.2663C13.4112 17.9877 10.948 17.1115 8.78385 15.708C6.77037 14.4286 5.06329 12.7215 3.78385 10.708C2.3755 8.53401 1.49905 6.05884 1.22551 3.48301C1.20469 3.25256 1.23208 3.02031 1.30593 2.80103C1.37979 2.58175 1.49849 2.38025 1.65449 2.20936C1.81048 2.03847 2.00035 1.90193 2.21201 1.80844C2.42366 1.71495 2.65246 1.66656 2.88385 1.66634H5.38385C5.78827 1.66236 6.18034 1.80557 6.48698 2.06929C6.79362 2.333 6.99391 2.69921 7.05051 3.09967C7.15603 3.89973 7.35172 4.68528 7.63385 5.44134C7.74597 5.73961 7.77023 6.06377 7.70377 6.37541C7.63731 6.68705 7.4829 6.9731 7.25885 7.19967L6.20051 8.25801C7.38681 10.3443 9.11422 12.0717 11.2005 13.258L12.2588 12.1997C12.4854 11.9756 12.7715 11.8212 13.0831 11.7548C13.3947 11.6883 13.7189 11.7126 14.0172 11.8247C14.7732 12.1068 15.5588 12.3025 16.3588 12.408C16.7636 12.4651 17.1333 12.669 17.3976 12.9809C17.6619 13.2928 17.8023 13.691 17.7922 14.0997Z" stroke="#323232" stroke-linecap="round" stroke-linejoin="round"/>
</svg>
