<svg width="44" height="41" viewBox="0 0 44 41" fill="none" xmlns="http://www.w3.org/2000/svg">
<path d="M40.75 19V28.375H3.25V3.375H22V0.25H3.25C2.4212 0.25 1.62634 0.57924 1.04029 1.16529C0.45424 1.75134 0.125 2.5462 0.125 3.375V28.375C0.125 29.2038 0.45424 29.9987 1.04029 30.5847C1.62634 31.1708 2.4212 31.5 3.25 31.5H15.75V37.75H9.5V40.875H34.5V37.75H28.25V31.5H40.75C41.5788 31.5 42.3737 31.1708 42.9597 30.5847C43.5458 29.9987 43.875 29.2038 43.875 28.375V19H40.75ZM25.125 37.75H18.875V31.5H25.125V37.75Z" fill="#40B052"/>
</svg>
