<svg width="48" height="48" viewBox="0 0 48 48" fill="none" xmlns="http://www.w3.org/2000/svg">
<path fill-rule="evenodd" clip-rule="evenodd" d="M24 0C10.7452 0 0 10.7452 0 24C0 37.2548 10.7452 48 24 48C37.2548 48 48 37.2548 48 24C48 10.7452 37.2548 0 24 0ZM25.9541 31.5762C25.7175 31.8257 25.2555 31.8761 25.2555 31.8761H23.7254C23.7254 31.8761 20.3497 32.0752 17.376 29.037C14.1331 25.7222 11.2695 19.1455 11.2695 19.1455C11.2695 19.1455 11.1043 18.7141 11.2833 18.5064C11.4849 18.2717 12.0346 18.2569 12.0346 18.2569L15.6919 18.2336C15.6919 18.2336 16.0363 18.2889 16.2829 18.4671C16.487 18.6146 16.601 18.8887 16.601 18.8887C16.601 18.8887 17.192 20.3562 17.9745 21.6835C19.5033 24.2756 20.2145 24.8422 20.7329 24.5644C21.4892 24.1601 21.2625 20.9006 21.2625 20.9006C21.2625 20.9006 21.2763 19.7183 20.8819 19.191C20.5764 18.783 20.0004 18.6637 19.7462 18.6306C19.5396 18.6035 19.8777 18.134 20.3159 17.9239C20.9745 17.608 22.1365 17.5896 23.51 17.6031C24.5806 17.6141 24.8886 17.6793 25.3068 17.7788C26.2774 18.0087 26.2471 18.7455 26.1817 20.3357C26.1621 20.8113 26.1394 21.3631 26.1394 22.0006C26.1394 22.1439 26.1352 22.2966 26.1308 22.4537C26.1081 23.2683 26.0821 24.2012 26.629 24.5485C26.9095 24.7254 27.5944 24.5743 29.3085 21.7179C30.1211 20.3635 30.7296 18.7719 30.7296 18.7719C30.7296 18.7719 30.8636 18.488 31.0702 18.3663C31.2818 18.2422 31.5673 18.2803 31.5673 18.2803L35.4162 18.2569C35.4162 18.2569 36.5732 18.1205 36.7597 18.6343C36.9563 19.1713 36.3278 20.4274 34.7551 22.4849C33.2633 24.4371 32.5374 25.1558 32.604 25.7915C32.6527 26.256 33.1246 26.6761 34.0302 27.5006C35.9205 29.2235 36.4273 30.1299 36.549 30.3477C36.5591 30.3657 36.5665 30.379 36.5719 30.3877C37.4196 31.7679 35.6316 31.8761 35.6316 31.8761L32.2121 31.9228C32.2121 31.9228 31.4784 32.0654 30.5118 31.414C30.0054 31.073 29.5106 30.5162 29.0394 29.9858C28.3196 29.1758 27.6548 28.4276 27.0873 28.6043C26.1344 28.9018 26.1632 30.9162 26.1632 30.9162C26.1632 30.9162 26.1707 31.3476 25.9541 31.5762Z" fill="white"/>
</svg>
