<svg width="48" height="48" viewBox="0 0 48 48" fill="none" xmlns="http://www.w3.org/2000/svg">
<path fill-rule="evenodd" clip-rule="evenodd" d="M24 0C10.7452 0 0 10.7452 0 24C0 37.2548 10.7452 48 24 48C37.2548 48 48 37.2548 48 24C48 10.7452 37.2548 0 24 0ZM36 18.96C36 15.12 32.88 12 29.04 12H18.96C17.1141 12 15.3438 12.7333 14.0385 14.0385C12.7333 15.3438 12 17.1141 12 18.96V29.04C12 32.88 15.12 36 18.96 36H29.04C30.8859 36 32.6562 35.2667 33.9615 33.9615C35.2667 32.6562 36 30.8859 36 29.04V18.96ZM15.6653 15.6653C16.4755 14.8551 17.5743 14.4 18.72 14.4H29.28C31.668 14.4 33.6 16.332 33.6 18.72V29.28C33.6 30.4257 33.1449 31.5245 32.3347 32.3347C31.5245 33.1449 30.4257 33.6 29.28 33.6H18.72C16.332 33.6 14.4 31.668 14.4 29.28V18.72C14.4 17.5743 14.8551 16.4755 15.6653 15.6653ZM31.3607 16.6393C31.0794 16.358 30.6978 16.2 30.3 16.2C29.9022 16.2 29.5206 16.358 29.2393 16.6393C28.958 16.9206 28.8 17.3022 28.8 17.7C28.8 18.0978 28.958 18.4794 29.2393 18.7607C29.5206 19.042 29.9022 19.2 30.3 19.2C30.6978 19.2 31.0794 19.042 31.3607 18.7607C31.642 18.4794 31.8 18.0978 31.8 17.7C31.8 17.3022 31.642 16.9206 31.3607 16.6393ZM28.2426 19.7574C27.1174 18.6321 25.5913 18 24 18C22.4087 18 20.8826 18.6321 19.7574 19.7574C18.6321 20.8826 18 22.4087 18 24C18 25.5913 18.6321 27.1174 19.7574 28.2426C20.8826 29.3679 22.4087 30 24 30C25.5913 30 27.1174 29.3679 28.2426 28.2426C29.3679 27.1174 30 25.5913 30 24C30 22.4087 29.3679 20.8826 28.2426 19.7574ZM21.4544 21.4544C22.1295 20.7793 23.0452 20.4 24 20.4C24.9548 20.4 25.8705 20.7793 26.5456 21.4544C27.2207 22.1295 27.6 23.0452 27.6 24C27.6 24.9548 27.2207 25.8705 26.5456 26.5456C25.8705 27.2207 24.9548 27.6 24 27.6C23.0452 27.6 22.1295 27.2207 21.4544 26.5456C20.7793 25.8705 20.4 24.9548 20.4 24C20.4 23.0452 20.7793 22.1295 21.4544 21.4544Z" fill="#191919"/>
</svg>
