<svg width="44" height="35" viewBox="0 0 44 35" fill="none" xmlns="http://www.w3.org/2000/svg">
<path d="M43.75 16.9531L39.0625 6.01562C38.9429 5.73321 38.7428 5.49224 38.4872 5.32275C38.2316 5.15326 37.9317 5.06275 37.625 5.0625H32.9375V1.9375C32.9375 1.5231 32.7729 1.12567 32.4799 0.832646C32.1868 0.53962 31.7894 0.375 31.375 0.375H1.6875C1.2731 0.375 0.875671 0.53962 0.582646 0.832646C0.28962 1.12567 0.125 1.5231 0.125 1.9375V28.5C0.125 28.9144 0.28962 29.3118 0.582646 29.6049C0.875671 29.8979 1.2731 30.0625 1.6875 30.0625H5.03125C5.39107 31.3865 6.17657 32.5553 7.26656 33.3886C8.35655 34.222 9.69046 34.6734 11.0625 34.6734C12.4345 34.6734 13.7685 34.222 14.8584 33.3886C15.9484 32.5553 16.7339 31.3865 17.0938 30.0625H26.9062C27.2661 31.3865 28.0516 32.5553 29.1416 33.3886C30.2316 34.222 31.5655 34.6734 32.9375 34.6734C34.3095 34.6734 35.6435 34.222 36.7334 33.3886C37.8234 32.5553 38.6089 31.3865 38.9688 30.0625H42.3125C42.7269 30.0625 43.1243 29.8979 43.4174 29.6049C43.7104 29.3118 43.875 28.9144 43.875 28.5V17.5625C43.8746 17.3531 43.8321 17.1458 43.75 16.9531ZM32.9375 8.1875H36.5938L39.9375 16H32.9375V8.1875ZM11.0625 31.625C10.4444 31.625 9.84025 31.4417 9.32634 31.0983C8.81244 30.755 8.4119 30.2669 8.17538 29.6959C7.93885 29.1249 7.87697 28.4965 7.99755 27.8903C8.11812 27.2842 8.41575 26.7273 8.85279 26.2903C9.28983 25.8533 9.84665 25.5556 10.4528 25.435C11.059 25.3145 11.6874 25.3764 12.2584 25.6129C12.8294 25.8494 13.3175 26.2499 13.6608 26.7638C14.0042 27.2777 14.1875 27.8819 14.1875 28.5C14.1875 29.3288 13.8583 30.1237 13.2722 30.7097C12.6862 31.2958 11.8913 31.625 11.0625 31.625ZM26.9062 26.9375H17.0938C16.7339 25.6135 15.9484 24.4447 14.8584 23.6114C13.7685 22.778 12.4345 22.3266 11.0625 22.3266C9.69046 22.3266 8.35655 22.778 7.26656 23.6114C6.17657 24.4447 5.39107 25.6135 5.03125 26.9375H3.25V3.5H29.8125V23.125C29.101 23.5379 28.478 24.0873 27.9793 24.7415C27.4806 25.3958 27.1159 26.142 26.9062 26.9375ZM32.9375 31.625C32.3194 31.625 31.7152 31.4417 31.2013 31.0983C30.6874 30.755 30.2869 30.2669 30.0504 29.6959C29.8139 29.1249 29.752 28.4965 29.8725 27.8903C29.9931 27.2842 30.2908 26.7273 30.7278 26.2903C31.1648 25.8533 31.7217 25.5556 32.3278 25.435C32.934 25.3145 33.5624 25.3764 34.1334 25.6129C34.7044 25.8494 35.1925 26.2499 35.5358 26.7638C35.8792 27.2777 36.0625 27.8819 36.0625 28.5C36.0625 29.3288 35.7333 30.1237 35.1472 30.7097C34.5612 31.2958 33.7663 31.625 32.9375 31.625ZM40.75 26.9375H38.9688C38.6232 25.5993 37.8439 24.4133 36.7526 23.5651C35.6613 22.717 34.3196 22.2545 32.9375 22.25V19.125H40.75V26.9375Z" fill="#40B052"/>
</svg>
