<svg width="50" height="50" viewBox="0 0 50 50" fill="none" xmlns="http://www.w3.org/2000/svg">
<path d="M25 3.125C20.6735 3.125 16.4442 4.40795 12.8469 6.8116C9.24959 9.21526 6.44581 12.6317 4.79015 16.6288C3.13448 20.6259 2.70128 25.0243 3.54533 29.2676C4.38938 33.5109 6.47278 37.4087 9.53205 40.468C12.5913 43.5272 16.4891 45.6106 20.7324 46.4547C24.9757 47.2987 29.3741 46.8655 33.3712 45.2099C37.3683 43.5542 40.7848 40.7504 43.1884 37.1531C45.5921 33.5558 46.875 29.3265 46.875 25C46.875 19.1984 44.5703 13.6344 40.468 9.53204C36.3656 5.42968 30.8016 3.125 25 3.125ZM25 43.75C21.2916 43.75 17.6665 42.6503 14.5831 40.5901C11.4996 38.5298 9.09641 35.6014 7.67727 32.1753C6.25813 28.7492 5.88681 24.9792 6.61029 21.3421C7.33376 17.7049 9.11952 14.364 11.7418 11.7417C14.364 9.11951 17.7049 7.33375 21.3421 6.61028C24.9792 5.8868 28.7492 6.25812 32.1753 7.67726C35.6014 9.0964 38.5298 11.4996 40.5901 14.5831C42.6503 17.6665 43.75 21.2916 43.75 25C43.75 29.9728 41.7746 34.7419 38.2583 38.2583C34.742 41.7746 29.9728 43.75 25 43.75Z" fill="#40B052"/>
<path d="M17.9688 17.1876C17.1962 17.1876 16.4409 17.4167 15.7986 17.8459C15.1562 18.2752 14.6555 18.8852 14.3598 19.599C14.0642 20.3128 13.9868 21.0982 14.1376 21.8559C14.2883 22.6137 14.6603 23.3097 15.2066 23.856C15.7529 24.4023 16.4489 24.7743 17.2067 24.9251C17.9644 25.0758 18.7498 24.9984 19.4636 24.7028C20.1774 24.4071 20.7875 23.9065 21.2167 23.2641C21.6459 22.6217 21.875 21.8665 21.875 21.0939C21.8792 20.5797 21.781 20.0699 21.5861 19.5941C21.3913 19.1183 21.1037 18.686 20.7402 18.3225C20.3766 17.9589 19.9443 17.6713 19.4685 17.4765C18.9927 17.2817 18.4829 17.1835 17.9688 17.1876ZM32.0313 17.1876C31.2587 17.1876 30.5034 17.4167 29.8611 17.8459C29.2187 18.2752 28.718 18.8852 28.4223 19.599C28.1267 20.3128 28.0493 21.0982 28.2001 21.8559C28.3508 22.6137 28.7228 23.3097 29.2691 23.856C29.8154 24.4023 30.5114 24.7743 31.2692 24.9251C32.0269 25.0758 32.8123 24.9984 33.5261 24.7028C34.2399 24.4071 34.85 23.9065 35.2792 23.2641C35.7084 22.6217 35.9375 21.8665 35.9375 21.0939C35.9417 20.5797 35.8435 20.0699 35.6486 19.5941C35.4538 19.1183 35.1662 18.686 34.8027 18.3225C34.4391 17.9589 34.0068 17.6713 33.531 17.4765C33.0552 17.2817 32.5454 17.1835 32.0313 17.1876ZM25 37.5001C27.1568 37.4965 29.276 36.9348 31.1515 35.8697C33.027 34.8047 34.5951 33.2724 35.7031 31.422L33.0313 29.8595C32.1974 31.2442 31.0197 32.3898 29.6125 33.185C28.2053 33.9803 26.6164 34.3982 25 34.3982C23.3836 34.3982 21.7947 33.9803 20.3875 33.185C18.9803 32.3898 17.8026 31.2442 16.9688 29.8595L14.2969 31.422C15.4049 33.2724 16.973 34.8047 18.8485 35.8697C20.724 36.9348 22.8432 37.4965 25 37.5001Z" fill="#40B052"/>
</svg>
