<svg width="28" height="26" viewBox="0 0 28 26" fill="none" xmlns="http://www.w3.org/2000/svg">
<g clip-path="url(#clip0_790_1152)">
<mask id="mask0_790_1152" style="mask-type:alpha" maskUnits="userSpaceOnUse" x="0" y="0" width="28" height="26">
<path fill-rule="evenodd" clip-rule="evenodd" d="M0.463867 0H27.4639V26H0.463867V0Z" fill="#0D9B54"/>
</mask>
<g mask="url(#mask0_790_1152)">
<path fill-rule="evenodd" clip-rule="evenodd" d="M20.0088 0H7.90549C3.79486 0 0.451172 3.21862 0.451172 7.17523V18.825C0.451172 22.7816 3.79486 26 7.90549 26H20.0088C24.1195 26 27.4631 22.7808 27.4631 18.825V7.17523C27.4631 3.21862 24.1195 0 20.0088 0ZM25.0679 18.825C25.0679 21.5095 22.7993 23.6933 20.0102 23.6933H7.90688C5.11781 23.6933 2.8492 21.5095 2.8492 18.825V7.17526C2.8492 4.49068 5.11781 2.30687 7.90688 2.30687H20.0102C22.7993 2.30687 25.0679 4.49068 25.0679 7.17526V18.825Z" fill="white"/>
<path fill-rule="evenodd" clip-rule="evenodd" d="M13.9545 6.46387C10.2099 6.46387 7.16406 9.39585 7.16406 12.9994C7.16406 16.6039 10.2099 19.5359 13.9545 19.5359C17.6983 19.5359 20.745 16.6039 20.745 12.9994C20.745 9.39585 17.6983 6.46387 13.9545 6.46387ZM13.9548 17.2844C11.5003 17.2844 9.50242 15.3629 9.50242 12.9993C9.50242 10.6367 11.4995 8.71361 13.9548 8.71361C16.4102 8.71361 18.4072 10.6367 18.4072 12.9993C18.4072 15.3629 16.4094 17.2844 13.9548 17.2844Z" fill="white"/>
<path fill-rule="evenodd" clip-rule="evenodd" d="M20.822 4.88379C20.4102 4.88379 20.0059 5.04389 19.7153 5.32502C19.4224 5.60495 19.2549 5.99458 19.2549 6.39245C19.2549 6.78877 19.4231 7.17789 19.7153 7.45902C20.0055 7.73894 20.4102 7.90042 20.822 7.90042C21.2351 7.90042 21.6378 7.73894 21.9299 7.45902C22.222 7.17789 22.389 6.78808 22.389 6.39245C22.389 5.99458 22.222 5.60495 21.9299 5.32502C21.6391 5.04389 21.2351 4.88379 20.822 4.88379Z" fill="white"/>
</g>
</g>
<defs>
<clipPath id="clip0_790_1152">
<rect width="27" height="26" fill="white" transform="translate(0.460938)"/>
</clipPath>
</defs>
</svg>
